<?xml version="1.0" encoding="UTF-8"?>
<svg width="130px" height="48px" viewBox="0 0 130 48" version="1.1" xmlns="http://www.w3.org/2000/svg" xmlns:xlink="http://www.w3.org/1999/xlink">
    <g stroke="none" stroke-width="1" fill="none" fill-rule="evenodd">
        <g id="angular" transform="translate(15.000000, 9.000000)" fill-rule="nonzero">
            <path d="M47.56,20.064 C47.816,20.064 48.0426667,19.9786667 48.24,19.808 C48.4373333,19.6373333 48.536,19.4293333 48.536,19.184 C48.536,19.0453333 48.504,18.9066667 48.44,18.768 L48.44,18.768 L44.008,9.28 C43.912,9.06666667 43.7653333,8.904 43.568,8.792 C43.3706667,8.68 43.16,8.624 42.936,8.624 C42.712,8.624 42.5013333,8.68 42.304,8.792 C42.1066667,8.904 41.96,9.06666667 41.864,9.28 L41.864,9.28 L37.448,18.768 C37.384,18.9066667 37.352,19.0453333 37.352,19.184 C37.352,19.4293333 37.4533333,19.6373333 37.656,19.808 C37.8586667,19.9786667 38.0826667,20.064 38.328,20.064 C38.5093333,20.064 38.6746667,20.0186667 38.824,19.928 C38.9733333,19.8373333 39.0906667,19.696 39.176,19.504 L39.176,19.504 L40.136,17.36 L45.768,17.36 L46.728,19.504 C46.8133333,19.696 46.9306667,19.8373333 47.08,19.928 C47.2293333,20.0186667 47.3893333,20.064 47.56,20.064 Z M45.064,15.76 L40.84,15.76 L42.952,11.008 L45.064,15.76 Z M56.248,20.096 C56.5573333,20.096 56.8,20.0106667 56.976,19.84 C57.152,19.6693333 57.24,19.4346667 57.24,19.136 L57.24,19.136 L57.24,15.2 C57.24,14.1226667 57.0106667,13.3173333 56.552,12.784 C56.0933333,12.2506667 55.3946667,11.984 54.456,11.984 C53.8906667,11.984 53.384,12.1013333 52.936,12.336 C52.488,12.5706667 52.1306667,12.9066667 51.864,13.344 L51.864,13.344 L51.864,12.912 C51.864,12.6453333 51.776,12.4293333 51.6,12.264 C51.424,12.0986667 51.1973333,12.016 50.92,12.016 C50.6106667,12.016 50.3653333,12.1013333 50.184,12.272 C50.0026667,12.4426667 49.912,12.6666667 49.912,12.944 L49.912,12.944 L49.912,19.136 C49.912,19.4346667 50,19.6693333 50.176,19.84 C50.352,20.0106667 50.5946667,20.096 50.904,20.096 C51.2133333,20.096 51.4586667,20.0106667 51.64,19.84 C51.8213333,19.6693333 51.912,19.4346667 51.912,19.136 L51.912,19.136 L51.912,15.568 C51.912,14.96 52.0853333,14.4746667 52.432,14.112 C52.7786667,13.7493333 53.24,13.568 53.816,13.568 C54.3066667,13.568 54.6666667,13.7066667 54.896,13.984 C55.1253333,14.2613333 55.24,14.704 55.24,15.312 L55.24,15.312 L55.24,19.136 C55.24,19.4346667 55.3306667,19.6693333 55.512,19.84 C55.6933333,20.0106667 55.9386667,20.096 56.248,20.096 Z M62.84,23.008 C64.1733333,23.008 65.1813333,22.6933333 65.864,22.064 C66.5466667,21.4346667 66.888,20.5066667 66.888,19.28 L66.888,19.28 L66.888,12.96 C66.888,12.672 66.7973333,12.4426667 66.616,12.272 C66.4346667,12.1013333 66.1946667,12.016 65.896,12.016 C65.5973333,12.016 65.3573333,12.1013333 65.176,12.272 C64.9946667,12.4426667 64.904,12.6666667 64.904,12.944 L64.904,12.944 L64.904,13.36 C64.6693333,12.9226667 64.328,12.584 63.88,12.344 C63.432,12.104 62.92,11.984 62.344,11.984 C61.6613333,11.984 61.0533333,12.1466667 60.52,12.472 C59.9866667,12.7973333 59.5733333,13.256 59.28,13.848 C58.9866667,14.44 58.84,15.12 58.84,15.888 C58.84,16.656 58.9893333,17.3333333 59.288,17.92 C59.5866667,18.5066667 60,18.9626667 60.528,19.288 C61.056,19.6133333 61.6613333,19.776 62.344,19.776 C62.92,19.776 63.432,19.656 63.88,19.416 C64.328,19.176 64.6693333,18.8373333 64.904,18.4 L64.904,18.4 L64.904,19.424 C64.904,20.7893333 64.2053333,21.472 62.808,21.472 C62.4133333,21.472 62.064,21.4293333 61.76,21.344 C61.456,21.2586667 61.112,21.136 60.728,20.976 C60.5786667,20.912 60.4346667,20.856 60.296,20.808 C60.1573333,20.76 60.04,20.736 59.944,20.736 C59.7626667,20.736 59.616,20.8053333 59.504,20.944 C59.392,21.0826667 59.336,21.2693333 59.336,21.504 C59.336,21.8346667 59.5333333,22.1173333 59.928,22.352 C60.7066667,22.7893333 61.6773333,23.008 62.84,23.008 Z M62.872,18.224 C62.2426667,18.224 61.7466667,18.016 61.384,17.6 C61.0213333,17.184 60.84,16.6133333 60.84,15.888 C60.84,15.152 61.0213333,14.576 61.384,14.16 C61.7466667,13.744 62.2426667,13.536 62.872,13.536 C63.512,13.536 64.0106667,13.744 64.368,14.16 C64.7253333,14.576 64.904,15.152 64.904,15.888 C64.904,16.6133333 64.7253333,17.184 64.368,17.6 C64.0106667,18.016 63.512,18.224 62.872,18.224 Z M71.784,20.128 C72.3066667,20.128 72.776,20.0133333 73.192,19.784 C73.608,19.5546667 73.9386667,19.2266667 74.184,18.8 L74.184,18.8 L74.184,19.2 C74.184,19.4773333 74.2693333,19.696 74.44,19.856 C74.6106667,20.016 74.84,20.096 75.128,20.096 C75.4266667,20.096 75.6693333,20.0106667 75.856,19.84 C76.0426667,19.6693333 76.136,19.4453333 76.136,19.168 L76.136,19.168 L76.136,12.96 C76.136,12.672 76.0453333,12.4426667 75.864,12.272 C75.6826667,12.1013333 75.4373333,12.016 75.128,12.016 C74.8293333,12.016 74.5893333,12.1013333 74.408,12.272 C74.2266667,12.4426667 74.136,12.672 74.136,12.96 L74.136,12.96 L74.136,16.528 C74.136,17.136 73.968,17.624 73.632,17.992 C73.296,18.36 72.8506667,18.544 72.296,18.544 C71.816,18.544 71.464,18.4106667 71.24,18.144 C71.016,17.8773333 70.904,17.4666667 70.904,16.912 L70.904,16.912 L70.904,12.96 C70.904,12.672 70.8133333,12.4426667 70.632,12.272 C70.4506667,12.1013333 70.2053333,12.016 69.896,12.016 C69.5973333,12.016 69.3573333,12.1013333 69.176,12.272 C68.9946667,12.4426667 68.904,12.672 68.904,12.96 L68.904,12.96 L68.904,16.896 C68.904,19.0506667 69.864,20.128 71.784,20.128 Z M79.208,20.096 C79.496,20.096 79.736,20.0133333 79.928,19.848 C80.12,19.6826667 80.216,19.4453333 80.216,19.136 L80.216,19.136 L80.216,9.584 C80.216,9.27466667 80.12,9.04 79.928,8.88 C79.736,8.72 79.496,8.64 79.208,8.64 C78.92,8.64 78.6826667,8.72 78.496,8.88 C78.3093333,9.04 78.216,9.27466667 78.216,9.584 L78.216,9.584 L78.216,19.136 C78.216,19.4453333 78.3093333,19.6826667 78.496,19.848 C78.6826667,20.0133333 78.92,20.096 79.208,20.096 Z M84.776,20.128 C85.288,20.128 85.7386667,20.0106667 86.128,19.776 C86.5173333,19.5413333 86.8026667,19.216 86.984,18.8 L86.984,18.8 L86.984,19.152 C86.984,19.4293333 87.072,19.6533333 87.248,19.824 C87.424,19.9946667 87.6506667,20.08 87.928,20.08 C88.2266667,20.08 88.4613333,19.9973333 88.632,19.832 C88.8026667,19.6666667 88.888,19.44 88.888,19.152 L88.888,19.152 L88.888,15.248 C88.888,14.1493333 88.624,13.3306667 88.096,12.792 C87.568,12.2533333 86.76,11.984 85.672,11.984 C85.1706667,11.984 84.6613333,12.0426667 84.144,12.16 C83.6266667,12.2773333 83.1813333,12.4373333 82.808,12.64 C82.5946667,12.7573333 82.4426667,12.8826667 82.352,13.016 C82.2613333,13.1493333 82.216,13.3066667 82.216,13.488 C82.216,13.712 82.2773333,13.8933333 82.4,14.032 C82.5226667,14.1706667 82.68,14.24 82.872,14.24 C83,14.24 83.2026667,14.1706667 83.48,14.032 C83.9173333,13.8613333 84.296,13.7306667 84.616,13.64 C84.936,13.5493333 85.2506667,13.504 85.56,13.504 C86.0613333,13.504 86.424,13.624 86.648,13.864 C86.872,14.104 86.984,14.4853333 86.984,15.008 L86.984,15.008 L86.984,15.376 L86.584,15.376 C85.4213333,15.376 84.5093333,15.4506667 83.848,15.6 C83.1866667,15.7493333 82.7093333,15.9893333 82.416,16.32 C82.1226667,16.6506667 81.976,17.104 81.976,17.68 C81.976,18.1386667 82.0986667,18.5546667 82.344,18.928 C82.5893333,19.3013333 82.9253333,19.5946667 83.352,19.808 C83.7786667,20.0213333 84.2533333,20.128 84.776,20.128 Z M85.176,18.688 C84.824,18.688 84.528,18.5786667 84.288,18.36 C84.048,18.1413333 83.928,17.8613333 83.928,17.52 C83.928,17.2426667 84.0133333,17.024 84.184,16.864 C84.3546667,16.704 84.6373333,16.592 85.032,16.528 C85.4266667,16.464 85.9813333,16.432 86.696,16.432 L86.696,16.432 L86.984,16.432 L86.984,16.768 C86.984,17.3333333 86.816,17.7946667 86.48,18.152 C86.144,18.5093333 85.7093333,18.688 85.176,18.688 Z M91.912,20.096 C92.2,20.096 92.44,20.0133333 92.632,19.848 C92.824,19.6826667 92.92,19.4453333 92.92,19.136 L92.92,19.136 L92.92,15.776 C92.92,15.232 93.0666667,14.7786667 93.36,14.416 C93.6533333,14.0533333 94.1146667,13.84 94.744,13.776 L94.744,13.776 L95.224,13.728 C95.5866667,13.6853333 95.8373333,13.5946667 95.976,13.456 C96.1146667,13.3173333 96.184,13.104 96.184,12.816 C96.184,12.5386667 96.104,12.3306667 95.944,12.192 C95.784,12.0533333 95.5653333,11.9946667 95.288,12.016 L95.288,12.016 L95.064,12.032 C94.5733333,12.064 94.128,12.208 93.728,12.464 C93.328,12.72 93.0266667,13.0826667 92.824,13.552 L92.824,13.552 L92.824,12.912 C92.824,12.624 92.7386667,12.4026667 92.568,12.248 C92.3973333,12.0933333 92.1733333,12.016 91.896,12.016 C91.6186667,12.016 91.3866667,12.096 91.2,12.256 C91.0133333,12.416 90.92,12.6453333 90.92,12.944 L90.92,12.944 L90.92,19.136 C90.92,19.4453333 91.0133333,19.6826667 91.2,19.848 C91.3866667,20.0133333 91.624,20.096 91.912,20.096 Z" id="Angular" fill="#2C2C2C"></path>
            <path d="M14,0.078125 L14,3.359375 L22.671875,22.8125 L19.390625,22.8125 L17.671875,18.515625 L14,18.515625 L14,29.921875 L25.796875,23.359375 L27.90625,5 L14,0.078125 Z M14,9.6875 L14,15.78125 L16.578125,15.78125 L14,9.6875 Z" id="a" fill="#C3002F"></path>
            <g id="a-link" transform="translate(7.000000, 15.078125) scale(-1, 1) translate(-7.000000, -15.078125) translate(0.000000, 0.078125)" fill="#DD0031">
                <path d="M0,0 L0,3.28125 L8.671875,22.734375 L5.390625,22.734375 L3.671875,18.4375 L0,18.4375 L0,29.84375 L11.796875,23.28125 L13.90625,4.921875 L0,0 Z M0,9.609375 L0,15.703125 L2.578125,15.703125 L0,9.609375 Z" id="a"></path>
            </g>
        </g>
    </g>
</svg>